<?xml version="1.0" encoding="UTF-8"?>
<svg width="56.452" height="37.325" version="1.1" viewBox="0 0 56.452 37.325" xmlns="http://www.w3.org/2000/svg" xmlns:cc="http://creativecommons.org/ns#" xmlns:dc="http://purl.org/dc/elements/1.1/" xmlns:rdf="http://www.w3.org/1999/02/22-rdf-syntax-ns#">
 <metadata>
  <rdf:RDF>
   <cc:Work rdf:about="">
    <dc:format>image/svg+xml</dc:format>
    <dc:type rdf:resource="http://purl.org/dc/dcmitype/StillImage"/>
    <dc:title/>
   </cc:Work>
  </rdf:RDF>
 </metadata>
 <path d="m0 18.663v-18.663h17.042v37.325h-17.042zm13.127 14.494c1.9804-1.735 2.0528-12.205 0.0942-13.629-0.74087-0.53868-3.4195-0.84879-5.9525-0.68913l-4.6055 0.29025-0.31842 6.4393c-0.17511 3.5416-0.07045 7.0058 0.23268 7.6983 0.75029 1.7129 8.5617 1.6316 10.55-0.11003zm-6.7359-3.6984c0-0.95273 0.96164-1.4646 2.7515-1.4646 3.3367 0 2.9715 2.1914-0.43847 2.631-1.5361 0.1982-2.3131-0.19362-2.3131-1.1664zm0-6.5968c0-0.77762 0.94678-1.3997 2.1302-1.3997 1.1834 0 2.1302 0.62209 2.1302 1.3997 0 0.77759-0.94678 1.3997-2.1302 1.3997-1.1834 0-2.1302-0.62209-2.1302-1.3997zm13.809 13.297c-0.02013-0.64152-0.05193-8.9347-0.06964-18.429l-0.0322-17.263h16.648l0.27697 18.429 0.27696 18.429h-8.5317c-6.0951 0-8.5424-0.33293-8.5693-1.1664zm9.6237-9.5646c0-6.4282-0.30272-7.9316-1.5977-7.9316-1.2842 0-1.5976 1.4343-1.5976 7.3095 0 4.0202 0.31964 7.5895 0.71007 7.9316 1.9071 1.6708 2.4852-0.02822 2.4852-7.3095zm9.586-7.9316v-18.663h17.042v37.325h-17.042zm10.433 9.0236c0.27615-5.4595 0.5707-6.2242 2.3965-6.2242 1.1448 0 2.0815-0.62985 2.0815-1.3997 0-1.0886-1.4201-1.3997-6.3907-1.3997-4.9705 0-6.3906 0.31106-6.3906 1.3997 0 0.77759 0.94678 1.3997 2.1302 1.3997 1.906 0 2.1302 0.62209 2.1302 5.9098 0 3.2504 0.3297 6.1985 0.73225 6.5513 1.8707 1.6389 3.0218-0.52958 3.3106-6.2369z" fill="#031d79" stroke-width=".99694"/>
</svg>
